<svg xmlns="http://www.w3.org/2000/svg" width="1200" height="630" viewBox="0 0 1200 630">
  <rect width="1200" height="630" fill="#007d7f" />
  <circle cx="1040" cy="90" r="260" fill="#ffffff" opacity="0.07" />
  <circle cx="150" cy="590" r="210" fill="#ffffff" opacity="0.07" />

  <g transform="translate(96 150)">
    <rect width="128" height="128" rx="32" fill="#f8fdfd" />
    <g
      transform="translate(32 32) scale(2.6667)"
      fill="none"
      stroke="#007d7f"
      stroke-width="2"
      stroke-linecap="round"
      stroke-linejoin="round"
    >
      <circle cx="11" cy="4" r="2" />
      <circle cx="18" cy="8" r="2" />
      <circle cx="20" cy="16" r="2" />
      <path
        d="M9 10a5 5 0 0 1 5 5v3.5a3.5 3.5 0 0 1-6.84 1.045Q6.52 17.48 4.46 16.84A3.5 3.5 0 0 1 5.5 10Z"
      />
    </g>
  </g>

  <text
    x="96"
    y="404"
    font-family="Helvetica Neue, Helvetica, Arial, sans-serif"
    font-size="116"
    font-weight="700"
    letter-spacing="-2"
    fill="#f8fdfd"
  >
    VetNow
  </text>
  <text
    x="100"
    y="472"
    font-family="Helvetica Neue, Helvetica, Arial, sans-serif"
    font-size="44"
    font-weight="500"
    fill="#f8fdfd"
    opacity="0.92"
  >
    Live vet availability in Visakhapatnam
  </text>
  <text
    x="100"
    y="530"
    font-family="Helvetica Neue, Helvetica, Arial, sans-serif"
    font-size="34"
    font-weight="400"
    fill="#f8fdfd"
    opacity="0.72"
  >
    Clinic · Video · Home consults
  </text>
</svg>
